<svg id="eurl0xaqch481" xmlns="http://www.w3.org/2000/svg" xmlns:xlink="http://www.w3.org/1999/xlink"
 viewBox="0 0 100 100" shape-rendering="geometricPrecision"
  text-rendering="geometricPrecision">
  <path id="eurl0xaqch482" d="M35,-61.500000C48.400000,-52.900000,64.300000,-49.600000,75.200000,-40.300000C86.100000,-30.900000,91.900000,-15.500000,86.800000,-3C81.700000,9.500000,65.600000,19.100000,57.200000,32.700000C48.700000,46.300000,47.900000,64,39.700000,68.800000C31.400000,73.700000,15.700000,65.700000,-0.400000,66.300000C-16.500000,67,-32.900000,76.300000,-45.100000,73.700000C-57.300000,71.100000,-65.200000,56.700000,-71.400000,42.400000C-77.500000,28.200000,-80.515663,15.257334,-74.115663,4.857334C-67.715663,-5.542666,-50.111186,-13.922669,-44.504122,-27.133885C-37.904122,-40.733885,-46.163599,-55.613963,-38.605829,-68.202359C-32.805829,-81.202359,-15.700000,-92.700000,-2.400000,-88.500000C10.800000,-84.300000,21.600000,-70.200000,35,-61.500000Z" transform="matrix(-1.00460324463352 -0.01753541486218 0.28536078890856 -0.99517133694554 6.41949073224082 16.22321590823364)" fill="rgb(54,57,63)" stroke="none" stroke-width="1"/></svg>