<?xml version="1.0" standalone="no"?>
<svg viewBox="0 0 100 100" xmlns="http://www.w3.org/2000/svg">

  <path fill="#36393f" d="M35,-61.5C48.4,-52.9,64.3,-49.6,75.2,-40.3C86.1,-30.9,91.9,-15.5,86.8,-3C81.7,9.5,65.6,19.1,57.2,32.7C48.7,46.3,47.9,64,39.7,68.8C31.4,73.7,15.7,65.7,-0.4,66.3C-16.5,67,-32.9,76.3,-45.1,73.7C-57.3,71.1,-65.2,56.7,-71.4,42.4C-77.5,28.2,-81.9,14.1,-75.5,3.7C-69.1,-6.7,-52,-13.4,-45.4,-26.9C-38.8,-40.5,-42.9,-60.9,-37.1,-74C-31.3,-87,-15.7,-92.7,-2.4,-88.5C10.8,-84.3,21.6,-70.2,35,-61.5Z" transform="rotate(30deg)" />
  
</svg>
