<?xml version="1.0" standalone="no"?><svg xmlns="http://www.w3.org/2000/svg" viewBox="0 0 1440 320"><path fill="#0099ff" fill-opacity="1" d="M0,128L24,138.7C48,149,96,171,144,197.3C192,224,240,256,288,245.3C336,235,384,181,432,170.7C480,160,528,192,576,181.3C624,171,672,117,720,101.3C768,85,816,107,864,112C912,117,960,107,1008,112C1056,117,1104,139,1152,149.3C1200,160,1248,160,1296,138.7C1344,117,1392,75,1416,53.3L1440,32L1440,320L1416,320C1392,320,1344,320,1296,320C1248,320,1200,320,1152,320C1104,320,1056,320,1008,320C960,320,912,320,864,320C816,320,768,320,720,320C672,320,624,320,576,320C528,320,480,320,432,320C384,320,336,320,288,320C240,320,192,320,144,320C96,320,48,320,24,320L0,320Z"></path></svg>